# xmcd
#
# Track frame offsets: 
#        150
#        11183
#        23474
#        35576
#        46826
#        57090
#        65493
#        75030
#        87677
#        97998
#        106569
#        121299
#        130558
#        138375
#        149081
#        160903
#        168821
#        175400
#        184682
#        192549
#        198856
#        207095
#        216409
#        226001
#        234210
#        240816
#        246628
#        254665
#        259309
#        266999
#
# Disc length: 3724 seconds
#
# Revision: 0
# Processed by: cddbd v1.5.2PL0 Copyright (c) Steve Scherf et al.
# Submitted via: ExactAudioCopy v1.1
#
DISCID=9e0e8a1e
DTITLE=Various Artist - 30 Nostalgic Steel Guitar Instrumentals
DYEAR=2001
DGENRE=Instrumental
TTITLE0=Cecil Campbell - Steel Guitar Swing
TTITLE1=Dick Dickinson - String Twister
TTITLE2=Dick Dickinson - Hula Beauty
TTITLE3=Spade Cooley - Texas Playboy Rag
TTITLE4=Curly Coldiron - Steel Guitar Rag
TTITLE5=Curly Coldiron - Steelin The Blues
TTITLE6=Curly Coldiron - San Antonio Rose
TTITLE7=Marvin Carroll - Panhandle Rag
TTITLE8=Marvin Carroll - Oklahoma Stomp
TTITLE9=Marvin Carroll - Remington Ride
TTITLE10=Jerry Byrd - Paradise Island
TTITLE11=Buddy Emmons - Buddy's Boogie
TTITLE12=Cousin Jody - Wabash Cannonball
TTITLE13=Cousin Jody - Cripple Creek
TTITLE14=Cousin Jody - Steel Guitar Rag
TTITLE15=Cousin Jody - Listen To The Mockingbird
TTITLE16=Cousin Jody - Jody's Chimes
TTITLE17=Ralph Pierce - Remington Ride
TTITLE18=Don Davis and The Candy Kids - Panhandle Rag
TTITLE19=Johnny Sibert - Texas Playboy Rag
TTITLE20=Jerry Byrd - Steelin' The Blues
TTITLE21=Country Deputies - Roadside Rag
TTITLE22=Country Deputies - Steelin' Away
TTITLE23=The Cherokee Cowboys - Bud's Bounce
TTITLE24=Don Helms - Corn Crib
TTITLE25=Don Helms - Steelin' Home
TTITLE26=Howard White - Remington Ride
TTITLE27=Doc Martin - Spanish Fandango
TTITLE28=Little Roy Wiggins - Panhandle Rag
TTITLE29=Merle Lindsay and His Oklahoma Night Riders - Lindsay Waltz
EXTD=
EXTT0=
EXTT1=
EXTT2=
EXTT3=
EXTT4=
EXTT5=
EXTT6=
EXTT7=
EXTT8=
EXTT9=
EXTT10=
EXTT11=
EXTT12=
EXTT13=
EXTT14=
EXTT15=
EXTT16=
EXTT17=
EXTT18=
EXTT19=
EXTT20=
EXTT21=
EXTT22=
EXTT23=
EXTT24=
EXTT25=
EXTT26=
EXTT27=
EXTT28=
EXTT29=
PLAYORDER=
